<?xml version="1.0" encoding="UTF-8" standalone="no"?><!DOCTYPE svg PUBLIC "-//W3C//DTD SVG 1.1//EN" "http://www.w3.org/Graphics/SVG/1.1/DTD/svg11.dtd"><svg width="100%" height="100%" viewBox="0 0 720 720" version="1.1" xmlns="http://www.w3.org/2000/svg" xmlns:xlink="http://www.w3.org/1999/xlink" xml:space="preserve" xmlns:serif="http://www.serif.com/" style="fill-rule:evenodd;clip-rule:evenodd;stroke-linejoin:round;stroke-miterlimit:2;"><rect x="0" y="0" width="720" height="720" style="fill:#0d9488;"/><g transform="matrix(1,0,0,1,-54,67.255083)"><g transform="matrix(200,0,0,200,127,316)"><path d="M0.636,-0.711l0,0.711l-0.123,-0l-0.319,-0.509l0,0.509l-0.123,-0l0,-0.711l0.123,0l0.32,0.51l0,-0.51l0.122,0Z" style="fill:#fff;fill-rule:nonzero;"/></g><g transform="matrix(200,0,0,200,268.894531,316)"><path d="M0.538,-0.097l0,0.097l-0.377,-0l0,-0.097l0.377,0Zm-0.343,-0.614l0,0.711l-0.123,-0l0,-0.711l0.123,0Zm0.293,0.297l0,0.095l-0.328,0l0,-0.095l0.328,0Zm0.047,-0.297l0,0.097l-0.375,0l0,-0.097l0.375,0Z" style="fill:#fff;fill-rule:nonzero;"/></g><g transform="matrix(200,0,0,200,381.882812,316)"><path d="M0.446,-0.183c0,-0.015 -0.002,-0.028 -0.007,-0.039c-0.004,-0.011 -0.012,-0.022 -0.023,-0.031c-0.011,-0.009 -0.027,-0.019 -0.047,-0.028c-0.02,-0.009 -0.045,-0.018 -0.076,-0.027c-0.034,-0.01 -0.065,-0.022 -0.093,-0.035c-0.029,-0.013 -0.053,-0.028 -0.075,-0.045c-0.021,-0.017 -0.038,-0.037 -0.049,-0.059c-0.012,-0.022 -0.018,-0.048 -0.018,-0.077c0,-0.029 0.006,-0.055 0.018,-0.079c0.012,-0.024 0.03,-0.044 0.052,-0.062c0.023,-0.017 0.049,-0.031 0.08,-0.04c0.031,-0.01 0.065,-0.014 0.103,-0.014c0.053,0 0.098,0.01 0.137,0.029c0.038,0.02 0.068,0.046 0.088,0.079c0.021,0.033 0.031,0.069 0.031,0.109l-0.122,0c0,-0.023 -0.005,-0.044 -0.015,-0.062c-0.01,-0.018 -0.025,-0.032 -0.045,-0.043c-0.02,-0.01 -0.045,-0.016 -0.076,-0.016c-0.029,0 -0.053,0.004 -0.072,0.013c-0.019,0.009 -0.033,0.021 -0.043,0.036c-0.009,0.015 -0.014,0.032 -0.014,0.051c0,0.013 0.003,0.026 0.009,0.036c0.006,0.011 0.016,0.021 0.028,0.03c0.013,0.009 0.029,0.018 0.048,0.026c0.019,0.008 0.042,0.016 0.068,0.023c0.039,0.012 0.074,0.025 0.103,0.039c0.029,0.014 0.054,0.03 0.073,0.048c0.02,0.018 0.034,0.038 0.044,0.061c0.01,0.023 0.015,0.048 0.015,0.077c0,0.03 -0.006,0.057 -0.018,0.081c-0.012,0.024 -0.029,0.044 -0.051,0.061c-0.022,0.017 -0.049,0.03 -0.08,0.039c-0.031,0.009 -0.066,0.013 -0.104,0.013c-0.034,0 -0.068,-0.005 -0.101,-0.014c-0.033,-0.009 -0.063,-0.023 -0.09,-0.042c-0.027,-0.019 -0.048,-0.042 -0.064,-0.07c-0.016,-0.028 -0.024,-0.061 -0.024,-0.099l0.122,0c0,0.023 0.004,0.043 0.012,0.059c0.008,0.016 0.019,0.03 0.034,0.04c0.014,0.01 0.031,0.018 0.05,0.023c0.019,0.005 0.039,0.007 0.061,0.007c0.029,0 0.053,-0.004 0.072,-0.012c0.019,-0.008 0.034,-0.019 0.044,-0.034c0.01,-0.015 0.015,-0.032 0.015,-0.051Z" style="fill:#fff;fill-rule:nonzero;"/></g><g transform="matrix(200,0,0,200,502.976562,316)"><path d="M0.365,-0.711l0,0.711l-0.122,-0l0,-0.711l0.122,0Zm0.223,0l0,0.097l-0.566,0l0,-0.097l0.566,0Z" style="fill:#fff;fill-rule:nonzero;"/></g><g transform="matrix(200,0,0,200,624.851562,316)"></g><g transform="matrix(200,0,0,200,127,562.375)"><path d="M0.195,-0.711l0,0.711l-0.123,-0l0,-0.711l0.123,0Zm0.29,0.311l0,0.097l-0.321,0l0,-0.097l0.321,0Zm0.041,-0.311l0,0.097l-0.362,0l0,-0.097l0.362,0Z" style="fill:#fff;fill-rule:nonzero;"/></g><g transform="matrix(200,0,0,200,237.15625,562.375)"><rect x="0.081" y="-0.711" width="0.122" height="0.711" style="fill:#fff;fill-rule:nonzero;"/></g><g transform="matrix(200,0,0,200,293.796875,562.375)"><path d="M0.636,-0.711l0,0.711l-0.123,-0l-0.319,-0.509l0,0.509l-0.123,-0l0,-0.711l0.123,0l0.32,0.51l0,-0.51l0.122,0Z" style="fill:#fff;fill-rule:nonzero;"/></g><g transform="matrix(200,0,0,200,435.691406,562.375)"><path d="M0.279,-0l-0.152,-0l0.001,-0.097l0.151,0c0.044,0 0.081,-0.01 0.111,-0.029c0.03,-0.019 0.052,-0.047 0.067,-0.083c0.015,-0.036 0.023,-0.078 0.023,-0.128l0,-0.039c0,-0.038 -0.004,-0.072 -0.013,-0.102c-0.009,-0.03 -0.021,-0.055 -0.038,-0.075c-0.017,-0.02 -0.037,-0.036 -0.062,-0.046c-0.024,-0.01 -0.052,-0.016 -0.084,-0.016l-0.159,0l0,-0.097l0.159,0c0.047,0 0.09,0.008 0.129,0.024c0.039,0.016 0.073,0.039 0.101,0.068c0.028,0.03 0.05,0.065 0.066,0.106c0.015,0.041 0.023,0.087 0.023,0.139l0,0.038c0,0.051 -0.008,0.097 -0.023,0.138c-0.015,0.041 -0.037,0.077 -0.066,0.106c-0.029,0.029 -0.063,0.052 -0.102,0.068c-0.04,0.016 -0.084,0.024 -0.133,0.024Zm-0.084,-0.711l0,0.711l-0.123,-0l0,-0.711l0.123,0Z" style="fill:#fff;fill-rule:nonzero;"/></g><g transform="matrix(200,0,0,200,566.257812,562.375)"></g></g></svg>